<svg height="800pt" preserveAspectRatio="xMidYMid meet" viewBox="0 0 800 800" width="800pt" xmlns="http://www.w3.org/2000/svg"><path d="m3770 7994c-19-2-91-9-160-15-272-23-611-96-895-193-1438-489-2473-1744-2679-3251-52-385-46-805 20-1195 263-1568 1430-2832 2973-3219 336-84 600-116 971-116s635 32 971 116c1543 387 2710 1651 2973 3219 156 928-26 1899-505 2701-650 1089-1766 1803-3029 1939-106 11-575 22-640 14zm1955-1561c33-77 66-316 85-603 16-249 30-589 30-738v-134l-42 7c-261 39-501 111-702 209-333 162-642 430-830 718-77 118-123 149-222 149-89 0-165-45-204-121-16-33-18-137-21-1910-4-1702-3-1878 12-1910 52-113 162-168 272-136 60 18 119 73 187 176 136 205 382 437 623 587 246 152 569 265 880 308l48 6-5-73c-3-40-8-156-11-258-6-194-28-561-45-765-15-176-37-296-57-310-57-42-402-71-1123-96-380-13-1571-6-1845 11-179 11-382 33-464 51-91 19-99 44-123 379-19 269-16 1903 5 2820 24 1012 45 1617 56 1624 12 8 2386 42 3073 44l408 2z" transform="matrix(.1 0 0 -.1 0 800)"/></svg>